<svg width="40" height="40" viewBox="0 0 40 40" fill="none" xmlns="http://www.w3.org/2000/svg">
<rect width="40" height="40" rx="20" fill="#121D81"/>
<path d="M20 30C25.5228 30 30 25.5228 30 20C30 14.4772 25.5228 10 20 10C14.4772 10 10 14.4772 10 20C10 25.5228 14.4772 30 20 30Z" stroke="#DDEAFC" stroke-width="1.5"/>
<path d="M18 17C18 15.8954 18.8954 15 20 15C21.1046 15 22 15.8954 22 17C22 17.3981 21.8837 17.7691 21.6831 18.0808C21.0854 19.0097 20 19.8954 20 21V21.5" stroke="#DDEAFC" stroke-width="1.5" stroke-linecap="round"/>
<path d="M19.9922 25H20.0012" stroke="#DDEAFC" stroke-width="2" stroke-linecap="round" stroke-linejoin="round"/>
</svg>
