<svg width="40" height="40" viewBox="0 0 40 40" fill="none" xmlns="http://www.w3.org/2000/svg">
<rect width="40" height="40" rx="20" fill="#121D81"/>
<path d="M30 20C30 14.4771 25.5228 10 20 10C14.4771 10 10 14.4771 10 20C10 25.5228 14.4771 30 20 30C25.5228 30 30 25.5228 30 20Z" stroke="#DDEAFC" stroke-width="1.5"/>
<path d="M28 13.699C27.0653 13.7664 25.8681 14.1282 25.0379 15.2028C23.5385 17.1436 22.039 17.3056 21.0394 16.6586C19.5399 15.6882 20.8 14.1164 19.0401 13.2621C17.8931 12.7054 17.7332 11.1904 18.3716 10" stroke="#DDEAFC" stroke-width="1.5" stroke-linejoin="round"/>
<path d="M10 19C10.7625 19.6621 11.8305 20.2682 13.0887 20.2682C15.6884 20.2682 16.2084 20.7649 16.2084 22.7518C16.2084 24.7387 16.2084 24.7387 16.7283 26.2288C17.0665 27.1981 17.1847 28.1674 16.5106 29" stroke="#DDEAFC" stroke-width="1.5" stroke-linejoin="round"/>
<path d="M30 21.4523C29.1129 20.9411 28 20.7308 26.8734 21.5405C24.7177 23.0898 23.2314 21.806 22.5619 23.0889C21.5765 24.9775 25.0957 25.5711 22 30" stroke="#DDEAFC" stroke-width="1.5" stroke-linejoin="round"/>
</svg>
