<svg width="24" height="25" viewBox="0 0 24 25" fill="none" xmlns="http://www.w3.org/2000/svg">
<path d="M0.75 6.54531H12.9615C13.2984 7.90628 14.5295 8.91845 15.9931 8.91845C17.4567 8.91845 18.6878 7.90628 19.0246 6.54531H23.25C23.6642 6.54531 24 6.20949 24 5.79531C24 5.38112 23.6642 5.04531 23.25 5.04531H19.0246C18.6878 3.68434 17.4567 2.67212 15.993 2.67212C14.5294 2.67212 13.2983 3.68434 12.9615 5.04531H0.75C0.335812 5.04531 0 5.38112 0 5.79531C0 6.20949 0.335812 6.54531 0.75 6.54531ZM15.9931 4.17212C16.8881 4.17212 17.6163 4.90028 17.6163 5.79526C17.6163 6.69029 16.8881 7.41845 15.9931 7.41845C15.0981 7.41845 14.3699 6.69029 14.3699 5.79526C14.3699 4.90028 15.0981 4.17212 15.9931 4.17212ZM0.75 13.0322H4.97541C5.31225 14.3932 6.54333 15.4054 8.00695 15.4054C9.47058 15.4054 10.7017 14.3932 11.0385 13.0322H23.25C23.6642 13.0322 24 12.6964 24 12.2822C24 11.8681 23.6642 11.5322 23.25 11.5322H11.0385C10.7016 10.1713 9.47053 9.15906 8.00691 9.15906C6.54328 9.15906 5.3122 10.1713 4.97536 11.5322H0.75C0.335812 11.5322 0 11.8681 0 12.2822C0 12.6964 0.335766 13.0322 0.75 13.0322ZM8.00691 10.6591C8.90194 10.6591 9.63009 11.3872 9.63009 12.2822C9.63009 13.1772 8.90194 13.9054 8.00691 13.9054C7.11187 13.9054 6.38372 13.1772 6.38372 12.2822C6.38372 11.3872 7.11187 10.6591 8.00691 10.6591ZM23.25 18.0192H19.0246C18.6877 16.6582 17.4567 15.646 15.993 15.646C14.5294 15.646 13.2983 16.6582 12.9615 18.0192H0.75C0.335812 18.0192 0 18.355 0 18.7692C0 19.1834 0.335812 19.5192 0.75 19.5192H12.9615C13.2984 20.8801 14.5295 21.8924 15.9931 21.8924C17.4567 21.8924 18.6878 20.8801 19.0246 19.5192H23.25C23.6642 19.5192 24 19.1834 24 18.7692C24 18.355 23.6642 18.0192 23.25 18.0192ZM15.9931 20.3924C15.0981 20.3924 14.3699 19.6642 14.3699 18.7692C14.3699 17.8742 15.0981 17.146 15.9931 17.146C16.8881 17.146 17.6163 17.8742 17.6163 18.7692C17.6163 19.6642 16.8881 20.3924 15.9931 20.3924Z" fill="#465EBB"/>
</svg>
