<svg width="40" height="40" viewBox="0 0 40 40" fill="none" xmlns="http://www.w3.org/2000/svg">
<rect width="40" height="40" rx="20" fill="#121D81"/>
<path d="M25.5556 30C25.5556 26.9318 23.0682 24.4444 20 24.4444C16.9318 24.4444 14.4444 26.9318 14.4444 30M25.5556 30H26.4479C27.69 30 28.3111 30 28.786 29.758C29.2041 29.545 29.545 29.2041 29.758 28.786C30 28.3111 30 27.69 30 26.4479V13.5521C30 12.31 30 11.688 29.758 11.2131C29.545 10.795 29.2041 10.4553 28.786 10.2422C28.3106 10 27.6892 10 26.4447 10H13.5558C12.3112 10 11.6885 10 11.2131 10.2422C10.795 10.4553 10.4553 10.795 10.2422 11.2131C10 11.6885 10 12.3112 10 13.5558V26.4447C10 27.6892 10 28.3106 10.2422 28.786C10.4553 29.2041 10.795 29.545 11.2131 29.758C11.688 30 12.31 30 13.5521 30H14.4444M25.5556 30H14.4444M20 21.1111C18.1591 21.1111 16.6667 19.6187 16.6667 17.7778C16.6667 15.9368 18.1591 14.4444 20 14.4444C21.841 14.4444 23.3333 15.9368 23.3333 17.7778C23.3333 19.6187 21.841 21.1111 20 21.1111Z" stroke="#DDEAFC" stroke-width="1.5" stroke-linecap="round" stroke-linejoin="round"/>
</svg>
