<svg width="30" height="30" viewBox="0 0 30 30" fill="none" xmlns="http://www.w3.org/2000/svg">
<path d="M22.0316 17.7174L25.3341 19.6874C25.6665 19.8864 25.9291 20.1835 26.0858 20.5379C26.2425 20.8922 26.2855 21.2864 26.2091 21.6662C26.0607 22.4261 25.7579 23.1476 25.3194 23.7858C24.8809 24.424 24.316 24.9654 23.6598 25.3764C23.0036 25.7875 22.27 26.0595 21.5045 26.1755C20.7389 26.2916 19.9576 26.2493 19.2091 26.0512C15.5602 25.0509 12.2344 23.1182 9.55882 20.443C6.88323 17.7679 4.94995 14.4424 3.94908 10.7937C3.75097 10.0452 3.7086 9.26404 3.82459 8.49854C3.94057 7.73303 4.21245 6.99948 4.62339 6.3433C5.03432 5.68711 5.57557 5.12226 6.21363 4.6837C6.85169 4.24514 7.57297 3.94221 8.33283 3.79367H8.35283C8.73431 3.71692 9.13022 3.76076 9.48567 3.91911C9.84113 4.07746 10.1385 4.34248 10.3366 4.67742L12.2916 7.97742C12.6232 8.54235 12.7259 9.21277 12.5788 9.85108C12.4317 10.4894 12.0458 11.0472 11.5003 11.4099L9.42908 12.7912C10.8952 16.3038 13.6837 19.0991 17.1928 20.5737L18.5866 18.4924C18.9523 17.9466 19.5135 17.562 20.1545 17.4178C20.7955 17.2736 21.4674 17.3808 22.0316 17.7174ZM25.6628 4.33742C25.5759 4.25034 25.4726 4.18126 25.3589 4.13413C25.2452 4.08699 25.1234 4.06273 25.0003 4.06273C24.8773 4.06273 24.7554 4.08699 24.6417 4.13413C24.5281 4.18126 24.4248 4.25034 24.3378 4.33742L19.6878 8.98617V7.08367C19.6878 6.83503 19.5891 6.59658 19.4132 6.42076C19.2374 6.24495 18.999 6.14617 18.7503 6.14617C18.5017 6.14617 18.2632 6.24495 18.0874 6.42076C17.9116 6.59658 17.8128 6.83503 17.8128 7.08367V11.2499C17.8138 11.4983 17.9129 11.7361 18.0885 11.9117C18.2641 12.0873 18.502 12.1864 18.7503 12.1874H22.9166C23.1652 12.1874 23.4037 12.0887 23.5795 11.9128C23.7553 11.737 23.8541 11.4986 23.8541 11.2499C23.8541 11.0013 23.7553 10.7628 23.5795 10.587C23.4037 10.4112 23.1652 10.3124 22.9166 10.3124H21.0141L25.6628 5.66242C25.7499 5.57547 25.819 5.4722 25.8661 5.35852C25.9133 5.24484 25.9375 5.12299 25.9375 4.99992C25.9375 4.87686 25.9133 4.75501 25.8661 4.64133C25.819 4.52765 25.7499 4.42438 25.6628 4.33742Z" fill="#A3A3A3"/>
</svg>
