<svg width="40" height="40" viewBox="0 0 40 40" fill="none" xmlns="http://www.w3.org/2000/svg">
<rect width="40" height="40" rx="20" fill="#121D81"/>
<path d="M20 23.75L23.75 20M23.75 20L20 16.25M23.75 20H10M16.25 14.0607V14.0002C16.25 12.6001 16.25 11.8995 16.5225 11.3647C16.7622 10.8943 17.1443 10.5122 17.6147 10.2725C18.1495 10 18.8501 10 20.2502 10H26.0002C27.4004 10 28.0995 10 28.6342 10.2725C29.1046 10.5122 29.4881 10.8943 29.7278 11.3647C30 11.899 30 12.5987 30 13.9961V26.0045C30 27.4019 30 28.1006 29.7278 28.6349C29.4881 29.1053 29.1046 29.4881 28.6342 29.7278C28.1 30 27.4013 30 26.0039 30H20.2461C18.8487 30 18.149 30 17.6147 29.7278C17.1443 29.4881 16.7622 29.1049 16.5225 28.6345C16.25 28.0997 16.25 27.4001 16.25 26V25.9375" stroke="#DDEAFC" stroke-width="1.5" stroke-linecap="round" stroke-linejoin="round"/>
</svg>
