<svg width="4" height="14" viewBox="0 0 4 14" fill="none" xmlns="http://www.w3.org/2000/svg">
<path d="M1 12.1429C1 12.6162 1.38376 13 1.85714 13C2.33053 13 2.71429 12.6162 2.71429 12.1429C2.71429 11.6695 2.33053 11.2857 1.85714 11.2857C1.38376 11.2857 1 11.6695 1 12.1429Z" stroke="#8696BB" stroke-width="2" stroke-linecap="round" stroke-linejoin="round"/>
<path d="M1 7C1 7.47339 1.38376 7.85714 1.85714 7.85714C2.33053 7.85714 2.71429 7.47339 2.71429 7C2.71429 6.52661 2.33053 6.14286 1.85714 6.14286C1.38376 6.14286 1 6.52661 1 7Z" stroke="#8696BB" stroke-width="2" stroke-linecap="round" stroke-linejoin="round"/>
<path d="M1 1.85714C1 2.33053 1.38376 2.71429 1.85714 2.71429C2.33053 2.71429 2.71429 2.33053 2.71429 1.85714C2.71429 1.38376 2.33053 1 1.85714 1C1.38376 1 1 1.38376 1 1.85714Z" stroke="#8696BB" stroke-width="2" stroke-linecap="round" stroke-linejoin="round"/>
</svg>
