<svg width="18" height="18" viewBox="0 0 18 18" fill="none" xmlns="http://www.w3.org/2000/svg">
<g clip-path="url(#clip0_267_33412)">
<path d="M5.99951 8.02539C5.74092 8.02539 5.49291 8.1277 5.31006 8.31055C5.12721 8.49339 5.0249 8.74141 5.0249 9C5.0249 9.25859 5.12721 9.50661 5.31006 9.68945C5.49291 9.8723 5.74093 9.97461 5.99951 9.97461H11.9995C12.2581 9.97461 12.5061 9.8723 12.689 9.68945C12.8718 9.5066 12.9741 9.25859 12.9741 9C12.9741 8.74141 12.8718 8.4934 12.689 8.31055C12.5061 8.1277 12.2581 8.02539 11.9995 8.02539H5.99951ZM4.49951 5.02539C4.24093 5.02539 3.99291 5.1277 3.81006 5.31055C3.62721 5.49339 3.5249 5.74141 3.5249 6C3.5249 6.25859 3.62721 6.50661 3.81006 6.68945C3.99291 6.8723 4.24093 6.97461 4.49951 6.97461H13.4995C13.7581 6.97461 14.0061 6.8723 14.189 6.68945C14.3718 6.5066 14.4741 6.25859 14.4741 6C14.4741 5.74141 14.3718 5.4934 14.189 5.31055C14.0061 5.1277 13.7581 5.02539 13.4995 5.02539H4.49951ZM3.97412 13.9912L3.79443 13.9551C2.99881 13.7914 2.2837 13.3578 1.77002 12.7285C1.25646 12.0993 0.975212 11.3122 0.974121 10.5V4.5C0.975312 3.56548 1.34749 2.6696 2.0083 2.00879C2.66911 1.34798 3.56499 0.9758 4.49951 0.974609H13.4995C14.434 0.9758 15.3299 1.34798 15.9907 2.00879C16.6515 2.6696 17.0237 3.56548 17.0249 4.5V10.5L17.02 10.6748C16.9758 11.5456 16.6102 12.3717 15.9907 12.9912C15.3299 13.652 14.434 14.0242 13.4995 14.0254H9.15674L9.1001 14.0625L4.79053 16.9365C4.71149 16.9892 4.6198 17.0198 4.5249 17.0244C4.42999 17.029 4.33525 17.0077 4.25146 16.9629C4.16781 16.9181 4.09809 16.851 4.04932 16.7695C4.00055 16.688 3.97411 16.595 3.97412 16.5V13.9912Z" stroke="url(#paint0_linear_267_33412)" stroke-width="0.45"/>
</g>
<defs>
<linearGradient id="paint0_linear_267_33412" x1="16.757" y1="3.08752" x2="1.29645" y2="3.55431" gradientUnits="userSpaceOnUse">
<stop stop-color="#122187"/>
<stop offset="1" stop-color="#1D2BC5"/>
</linearGradient>
<clipPath id="clip0_267_33412">
<rect width="18" height="18" fill="white"/>
</clipPath>
</defs>
</svg>
