<svg width="40" height="40" viewBox="0 0 40 40" fill="none" xmlns="http://www.w3.org/2000/svg">
<rect width="40" height="40" rx="20" fill="#121D81"/>
<path d="M12 27.7931H28M12 27.7931V23.7931L20 15.7931M12 27.7931L16 27.7931L24 19.7931M20 15.7931L22.8686 12.9244L22.8704 12.9227C23.2652 12.5278 23.463 12.3301 23.691 12.256C23.8919 12.1907 24.1082 12.1907 24.3091 12.256C24.5369 12.33 24.7345 12.5276 25.1288 12.9219L26.8686 14.6617C27.2646 15.0577 27.4627 15.2558 27.5369 15.4841C27.6022 15.685 27.6021 15.9013 27.5369 16.1022C27.4628 16.3303 27.265 16.5281 26.8695 16.9236L26.8686 16.9244L24 19.7931M20 15.7931L24 19.7931" stroke="#E1E8EB" stroke-width="1.5" stroke-linecap="round" stroke-linejoin="round"/>
</svg>
