<svg width="34" height="34" viewBox="0 0 34 34" fill="none" xmlns="http://www.w3.org/2000/svg">
<g clip-path="url(#clip0_267_191705)">
<path d="M7.94543 6.89392L21.4996 3.1942L20.7818 1.74333C20.3122 0.800261 19.1668 0.410816 18.2237 0.88044L6.08984 6.89392H7.94543Z" fill="url(#paint0_linear_267_191705)"/>
<path d="M25.7069 3.30103C25.5389 3.30103 25.3709 3.32393 25.2029 3.36975L22.0186 4.24027L12.2939 6.89384H23.332H28.1428L27.5472 4.7099C27.3181 3.85847 26.5468 3.30103 25.7069 3.30103Z" fill="url(#paint1_linear_267_191705)"/>
<path d="M30.1323 8.23022H29.697H29.1052H28.5134H23.9966H7.39944H5.22313H3.39046H3.05065H1.91286C1.3096 8.23022 0.771252 8.50894 0.419989 8.94802C0.259629 9.15038 0.137451 9.38328 0.0687254 9.6391C0.0267266 9.79946 0 9.96745 0 10.1393V10.3683V12.5447V31.4098C0 32.4636 0.85525 33.3188 1.90904 33.3188H30.1285C31.1823 33.3188 32.0375 32.4636 32.0375 31.4098V26.0836H20.7093C18.9186 26.0836 17.4639 24.6289 17.4639 22.8382V21.0895V20.4977V19.9059V18.5925C17.4639 17.7143 17.8151 16.9164 18.3841 16.3322C18.888 15.8129 19.5638 15.4617 20.3198 15.3739C20.4458 15.3586 20.5756 15.3509 20.7054 15.3509H30.4492H31.041H31.6328H32.0375V10.1393C32.0413 9.08547 31.1861 8.23022 30.1323 8.23022Z" fill="url(#paint2_linear_267_191705)"/>
<path d="M33.3772 17.1759C33.1863 17.0003 32.9611 16.8666 32.7091 16.7788C32.5143 16.714 32.3082 16.6758 32.0905 16.6758H32.0409H32.0027H31.4109H29.2766H20.7088C19.655 16.6758 18.7998 17.531 18.7998 18.5848V19.5355V20.1273V20.7191V22.8343C18.7998 23.8881 19.655 24.7433 20.7088 24.7433H32.0409H32.0905C32.3082 24.7433 32.5143 24.7052 32.7091 24.6403C32.9611 24.5563 33.1863 24.4188 33.3772 24.2432C33.759 23.8957 33.9996 23.3917 33.9996 22.8343V18.5848C33.9996 18.0273 33.759 17.5233 33.3772 17.1759ZM24.6949 21.0894C24.6949 21.6163 24.2673 22.044 23.7404 22.044H23.1066C22.5797 22.044 22.1521 21.6163 22.1521 21.0894V20.4556C22.1521 20.1502 22.2933 19.8791 22.5186 19.7073C22.6828 19.5813 22.8852 19.5011 23.1066 19.5011H23.267H23.7404C24.2673 19.5011 24.6949 19.9287 24.6949 20.4556V21.0894Z" fill="url(#paint3_linear_267_191705)"/>
</g>
<defs>
<linearGradient id="paint0_linear_267_191705" x1="21.0396" y1="1.56129" x2="6.66808" y2="2.63755" gradientUnits="userSpaceOnUse">
<stop stop-color="#243484"/>
<stop offset="1" stop-color="#506ACB"/>
</linearGradient>
<linearGradient id="paint1_linear_267_191705" x1="27.6697" y1="3.81001" x2="13.0648" y2="5.7552" gradientUnits="userSpaceOnUse">
<stop stop-color="#243484"/>
<stop offset="1" stop-color="#506ACB"/>
</linearGradient>
<linearGradient id="paint2_linear_267_191705" x1="31.0812" y1="11.7844" x2="1.0792" y2="12.9412" gradientUnits="userSpaceOnUse">
<stop stop-color="#243484"/>
<stop offset="1" stop-color="#506ACB"/>
</linearGradient>
<linearGradient id="paint3_linear_267_191705" x1="33.5459" y1="17.8187" x2="19.3366" y2="18.627" gradientUnits="userSpaceOnUse">
<stop stop-color="#243484"/>
<stop offset="1" stop-color="#506ACB"/>
</linearGradient>
<clipPath id="clip0_267_191705">
<rect width="34" height="34" fill="white"/>
</clipPath>
</defs>
</svg>
