<svg width="40" height="40" viewBox="0 0 40 40" fill="none" xmlns="http://www.w3.org/2000/svg">
<rect width="40" height="40" rx="20" fill="#121D81"/>
<path d="M23.3752 25.625V26.7501C23.3752 28.614 21.8642 30.1251 20.0002 30.1251C18.1362 30.1251 16.6251 28.614 16.6251 26.7501V25.625M23.3752 25.625H16.6251M23.3752 25.625H27.4146C27.8449 25.625 28.0612 25.625 28.2354 25.5663C28.5683 25.454 28.8287 25.1926 28.941 24.8598C29 24.6848 29 24.4679 29 24.0342C29 23.8444 28.9998 23.7495 28.9849 23.659C28.9569 23.488 28.8905 23.3259 28.7894 23.1851C28.736 23.1107 28.6682 23.0429 28.5343 22.909L28.0961 22.4708C27.9547 22.3294 27.8753 22.1376 27.8753 21.9377V17.7499C27.8753 13.4006 24.3495 9.87475 20.0002 9.87476C15.6508 9.87477 12.125 13.4006 12.125 17.7499V21.9377C12.125 22.1377 12.0454 22.3294 11.904 22.4708L11.4658 22.909C11.3316 23.0432 11.2644 23.1107 11.2109 23.1851C11.1099 23.3259 11.0429 23.488 11.0149 23.659C11 23.7495 11 23.8444 11 24.0342C11 24.468 11 24.6848 11.059 24.8597C11.1713 25.1926 11.4329 25.454 11.7658 25.5663C11.94 25.625 12.1554 25.625 12.5858 25.625H16.6251" stroke="#DDEAFC" stroke-width="1.5" stroke-linecap="round" stroke-linejoin="round"/>
</svg>
