<svg width="22" height="25" viewBox="0 0 22 25" fill="none" xmlns="http://www.w3.org/2000/svg">
<path d="M14.7502 18.7825V20.0326C14.7502 22.1037 13.0713 23.7826 11.0002 23.7826C8.92907 23.7826 7.25011 22.1037 7.25011 20.0326V18.7825M14.7502 18.7825H7.25011M14.7502 18.7825H19.2384C19.7166 18.7825 19.9568 18.7825 20.1505 18.7172C20.5203 18.5925 20.8097 18.3021 20.9344 17.9322C21 17.7379 21 17.4969 21 17.0149C21 16.804 20.9998 16.6986 20.9833 16.598C20.9521 16.408 20.8783 16.2279 20.766 16.0715C20.7067 15.9889 20.6313 15.9134 20.4826 15.7648L19.9957 15.2778C19.8386 15.1207 19.7503 14.9076 19.7503 14.6855V10.0324C19.7503 5.1998 15.8328 1.28221 11.0002 1.28223C6.16761 1.28224 2.25002 5.19981 2.25002 10.0324V14.6855C2.25002 14.9077 2.16158 15.1207 2.00448 15.2778L1.51759 15.7647C1.36845 15.9139 1.29381 15.9888 1.23438 16.0715C1.12207 16.228 1.04768 16.408 1.0165 16.598C1 16.6986 1 16.804 1 17.015C1 17.4969 1 17.7378 1.06557 17.9322C1.19032 18.302 1.48101 18.5925 1.85084 18.7172C2.04447 18.7825 2.28379 18.7825 2.76198 18.7825H7.25011" stroke="#DDEAFC" fill="none" stroke-width="1.5" stroke-linecap="round" stroke-linejoin="round"/>
</svg>
