<svg width="30" height="30" viewBox="0 0 30 30" fill="none" xmlns="http://www.w3.org/2000/svg">
<path d="M22.0316 17.7173L25.3341 19.6873C25.6665 19.8863 25.9291 20.1834 26.0858 20.5377C26.2425 20.8921 26.2855 21.2862 26.2091 21.666C26.0607 22.426 25.7578 23.1475 25.3194 23.7857C24.8809 24.424 24.3161 24.9654 23.6599 25.3766C23.0037 25.7878 22.2702 26.0599 21.5046 26.1761C20.739 26.2923 19.9577 26.2502 19.2091 26.0523C15.5601 25.0518 12.2343 23.1188 9.55869 20.4435C6.88311 17.7681 4.94988 14.4425 3.94908 10.7935C3.75097 10.0451 3.7086 9.26391 3.82459 8.49841C3.94057 7.7329 4.21245 6.99935 4.62339 6.34317C5.03432 5.68698 5.57557 5.12212 6.21363 4.68357C6.85169 4.24501 7.57297 3.94208 8.33283 3.79354H8.35283C8.73444 3.7169 9.13045 3.76093 9.48591 3.91951C9.84138 4.07809 10.1387 4.34337 10.3366 4.67854L12.2916 7.96979C12.6254 8.5354 12.7295 9.20757 12.5822 9.84765C12.435 10.4877 12.0477 11.0469 11.5003 11.4098L9.42908 12.791C10.8952 16.3037 13.6837 19.0989 17.1928 20.5735L18.5866 18.4923C18.9523 17.9465 19.5135 17.5618 20.1545 17.4176C20.7955 17.2734 21.4674 17.3807 22.0316 17.7173ZM25.8653 4.64104C25.7699 4.41173 25.5874 4.22965 25.3578 4.13479C25.2446 4.0872 25.1231 4.06255 25.0003 4.06229H20.8341C20.5854 4.06229 20.347 4.16106 20.1712 4.33688C19.9953 4.51269 19.8966 4.75115 19.8966 4.99979C19.8966 5.24843 19.9953 5.48689 20.1712 5.6627C20.347 5.83852 20.5854 5.93729 20.8341 5.93729H22.7366L18.0878 10.5873C17.9957 10.6731 17.9218 10.7766 17.8706 10.8916C17.8194 11.0066 17.7918 11.1308 17.7896 11.2566C17.7874 11.3825 17.8105 11.5076 17.8577 11.6243C17.9048 11.741 17.975 11.8471 18.064 11.9361C18.1531 12.0251 18.2591 12.0953 18.3758 12.1424C18.4926 12.1896 18.6176 12.2128 18.7435 12.2105C18.8694 12.2083 18.9935 12.1808 19.1085 12.1295C19.2235 12.0783 19.327 12.0044 19.4128 11.9123L24.0628 7.26354V9.16604C24.0628 9.41468 24.1616 9.65314 24.3374 9.82895C24.5132 10.0048 24.7517 10.1035 25.0003 10.1035C25.249 10.1035 25.4874 10.0048 25.6632 9.82895C25.8391 9.65314 25.9378 9.41468 25.9378 9.16604V4.99979C25.9374 4.87661 25.9128 4.75471 25.8653 4.64104Z" fill="#121D81"/>
</svg>
