<svg width="20" height="20" viewBox="0 0 20 20" fill="none" xmlns="http://www.w3.org/2000/svg">
<path d="M7.50222 2.25722C7.19849 1.4979 6.46307 1 5.64526 1H2.89449C1.84806 1 0.999756 1.8481 0.999756 2.89453C0.999756 11.7892 8.21053 19 17.1052 19C18.1517 19 18.9998 18.1516 18.9998 17.1052L19.0002 14.354C19.0002 13.5361 18.5024 12.8009 17.7431 12.4971L15.1067 11.4429C14.4246 11.1701 13.648 11.2929 13.0837 11.7632L12.4033 12.3307C11.6086 12.9929 10.4394 12.9402 9.70795 12.2088L7.79198 10.2911C7.06054 9.55962 7.00649 8.39134 7.6687 7.59668L8.23608 6.9163C8.70637 6.35195 8.83025 5.57516 8.55742 4.89309L7.50222 2.25722Z" stroke="url(#paint0_linear_267_33403)" stroke-linecap="round" stroke-linejoin="round"/>
<defs>
<linearGradient id="paint0_linear_267_33403" x1="18.4629" y1="3.55" x2="1.59643" y2="4.05926" gradientUnits="userSpaceOnUse">
<stop stop-color="#2B47B1"/>
<stop offset="0.556667" stop-color="#5D79E3"/>
</linearGradient>
</defs>
</svg>
