<svg width="24" height="25" viewBox="0 0 24 25" fill="none" xmlns="http://www.w3.org/2000/svg">
<path fill-rule="evenodd" clip-rule="evenodd" d="M12 4.5C10.3431 4.5 9 5.84315 9 7.5C9 9.15685 10.3431 10.5 12 10.5C13.6568 10.5 15 9.15685 15 7.5C15 5.84315 13.6568 4.5 12 4.5ZM7 7.5C7 4.73858 9.23858 2.5 12 2.5C14.7614 2.5 17 4.73858 17 7.5C17 10.2614 14.7614 12.5 12 12.5C9.23858 12.5 7 10.2614 7 7.5Z" fill="#9DB2CE"/>
<path fill-rule="evenodd" clip-rule="evenodd" d="M12.0001 15.5C8.5576 15.5 6.74797 16.7198 5.84519 18.1976C5.53101 18.712 5.61003 19.1971 5.9936 19.6428C6.41202 20.129 7.16864 20.5 8.00005 20.5H16.0001C16.8315 20.5 17.5881 20.129 18.0065 19.6428C18.3901 19.1971 18.4691 18.712 18.155 18.1976C17.2522 16.7198 15.4425 15.5 12.0001 15.5ZM4.13844 17.155C5.48775 14.9462 8.03689 13.5 12.0001 13.5C15.9633 13.5 18.5124 14.9462 19.8617 17.155C20.6992 18.5259 20.3786 19.9526 19.5225 20.9474C18.7011 21.9018 17.3778 22.5 16.0001 22.5H8.00005C6.62233 22.5 5.29901 21.9018 4.4777 20.9474C3.62153 19.9526 3.301 18.5259 4.13844 17.155Z" fill="#9DB2CE"/>
</svg>
