<svg width="24" height="25" viewBox="0 0 24 25" fill="none" xmlns="http://www.w3.org/2000/svg">
<path d="M10.3078 14.6923L15.1539 9.84619M20.1113 6.88867L16.0207 20.1833C15.6541 21.3747 15.4706 21.9707 15.1544 22.1683C14.8802 22.3396 14.5406 22.3683 14.2419 22.2443C13.8975 22.1014 13.618 21.5433 13.0603 20.428L10.4694 15.2461C10.3809 15.0691 10.3366 14.981 10.2775 14.9043C10.225 14.8363 10.1645 14.7749 10.0965 14.7225C10.0215 14.6647 9.93486 14.6214 9.76577 14.5369L4.57192 11.9399C3.45662 11.3823 2.89892 11.1032 2.75601 10.7588C2.63207 10.4601 2.66033 10.1202 2.83169 9.84597C3.02928 9.52974 3.62523 9.34603 4.81704 8.97932L18.1116 4.88867C19.0486 4.60038 19.5173 4.45635 19.8337 4.57253C20.1094 4.67373 20.3267 4.89084 20.4279 5.16651C20.544 5.48283 20.3999 5.95126 20.1119 6.88729L20.1113 6.88867Z" stroke="#9DB2CE" stroke-width="1.5" fill="none" stroke-linecap="round" stroke-linejoin="round"/>
</svg>
